name C:\Users\u0101727\Documents\MyRepositories\upper-imu-dc\Results\main_tracking\Case_30\kinematics.mot
datacolumns 43
datarows 5
range 1.84000000 1.88000000
endheader 
time	clav_prot	clav_elev	scapula_abduction	scapula_elevation	scapula_upward_rot	scapula_winging	plane_elv	shoulder_elv	axial_rot	TrapeziusScapula_M/activation	TrapeziusScapula_S/activation	TrapeziusScapula_I/activation	TrapeziusClavicle_S/activation	SerratusAnterior_I/activation	SerratusAnterior_M/activation	SerratusAnterior_S/activation	Rhomboideus_S/activation	Rhomboideus_I/activation	LevatorScapulae/activation	Coracobrachialis/activation	DeltoideusClavicle_A/activation	DeltoideusScapula_P/activation	DeltoideusScapula_M/activation	LatissimusDorsi_S/activation	LatissimusDorsi_M/activation	LatissimusDorsi_I/activation	PectoralisMajorClavicle_S/activation	PectoralisMajorThorax_I/activation	PectoralisMajorThorax_M/activation	TeresMajor/activation	Infraspinatus_I/activation	Infraspinatus_S/activation	PectoralisMinor/activation	TeresMinor/activation	Subscapularis_S/activation	Subscapularis_M/activation	Subscapularis_I/activation	Supraspinatus_P/activation	Supraspinatus_A/activation	TRIlong/activation	BIC_long/activation	BIC_brevis/activation	
          1.84000000	        -23.47990117	          4.79825786	          0.28248175	         -2.51755698	         37.54017905	         -2.94618486	         70.32688091	         65.54434197	        -22.81637979	          0.02251055	          0.01165964	          0.42370334	          0.01369369	          0.10694311	          0.01232933	          0.01001256	          0.01002568	          0.01001494	          0.01001410	          0.01017566	          0.01001287	          0.01001278	          0.01001320	          0.01001192	          0.01001240	          0.01001226	          0.01001223	          0.01001313	          0.01001283	          0.01001247	          0.05092465	          0.04309212	          0.01001121	          0.01001284	          0.01001099	          0.01001261	          0.01001224	          0.01001305	          0.01001288	          0.01001229	          0.01001309	          0.01001218	
          1.85000000	        -24.70024905	          5.27607593	          0.36460644	         -2.67461157	         40.54017907	         -3.67828853	         70.04227140	         66.62613829	        -21.38403879	          0.01929533	          0.01654112	          0.36317431	          0.02157230	          0.09166562	          0.01114015	          0.01001222	          0.01001131	          0.01001358	          0.01001295	          0.01000995	          0.01001224	          0.01001271	          0.01001273	          0.01001334	          0.01001324	          0.01001268	          0.01001221	          0.01001267	          0.01001241	          0.01001269	          0.14320171	          0.03693634	          0.01001293	          0.01001263	          0.01001194	          0.01001263	          0.01001259	          0.01001282	          0.01001272	          0.01001266	          0.01001289	          0.01001253	
          1.86000000	        -25.89668921	          5.83901613	          0.49952655	         -2.72111672	         43.53115761	         -4.41180537	         69.85932710	         67.42643564	        -20.17679799	          0.01653961	          0.01604290	          0.31129230	          0.02107222	          0.07857064	          0.01114170	          0.01001100	          0.01001019	          0.01000930	          0.01001062	          0.01001313	          0.01001248	          0.01001258	          0.01001213	          0.01001001	          0.01000995	          0.01001053	          0.01001300	          0.01000962	          0.01001090	          0.01001288	          0.12274575	          0.03166000	          0.01000876	          0.01001215	          0.01001203	          0.01001269	          0.01001323	          0.01001257	          0.01001261	          0.01001311	          0.01001259	          0.01001312	
          1.87000000	        -26.97462852	          6.38545497	          0.64223086	         -2.69454508	         46.22658097	         -5.06532047	         69.69663568	         68.03360498	        -19.30958278	          0.01417785	          0.01375223	          0.26682200	          0.01806260	          0.06734639	          0.01001407	          0.01001244	          0.01001464	          0.01001400	          0.01001402	          0.01001254	          0.01001242	          0.01001274	          0.01001267	          0.01001240	          0.01001247	          0.01001245	          0.01001215	          0.01001232	          0.01001247	          0.01001260	          0.10521072	          0.02713749	          0.01001231	          0.01001308	          0.01001218	          0.01001259	          0.01001232	          0.01001246	          0.01001247	          0.01001261	          0.01001252	          0.01001243	
          1.88000000	        -27.83055146	          6.85019173	          0.74145423	         -2.62156566	         48.33873993	         -5.57416129	         69.53199725	         68.50832179	        -18.76515116	          0.01215409	          0.01178958	          0.22870461	          0.01548318	          0.05772563	          0.01001155	          0.01001281	          0.01001354	          0.01001365	          0.01001346	          0.01001262	          0.01001242	          0.01001267	          0.01001242	          0.01001289	          0.01001298	          0.01001280	          0.01001250	          0.01001308	          0.01001291	          0.01001270	          0.09018072	          0.02326113	          0.01001330	          0.01001274	          0.01001268	          0.01001262	          0.01001269	          0.01001241	          0.01001250	          0.01001282	          0.01001243	          0.01001272	
